<svg xmlns="http://www.w3.org/2000/svg" viewBox="0 0 246.33 314.24"><defs><style>.cls-1{fill:#fff;}</style></defs><title>Asset 2</title><g id="Layer_2" data-name="Layer 2"><g id="Tablet"><path class="cls-1" d="M53.27,113.9a70.05,70.05,0,1,1,66,66,20,20,0,0,0-2.21,39.94A110.05,110.05,0,1,0,13.34,116.11a20,20,0,1,0,39.93-2.21Z"/><path class="cls-1" d="M102,88.79,40.38,150.36A30,30,0,0,0,82.8,192.79l61.58-61.58A30,30,0,1,0,102,88.79ZM75.73,185.72a20,20,0,1,1,0-28.29A20,20,0,0,1,75.73,185.72Z"/><path class="cls-1" d="M36.1,243a17.7,17.7,0,0,1,17.57,17.88,18.32,18.32,0,0,1-5,13,16.13,16.13,0,0,1-12.29,5.35A16.6,16.6,0,0,1,24,273.86a17.45,17.45,0,0,1-5.11-12.58,19.32,19.32,0,0,1,1.43-7.46A17.09,17.09,0,0,1,24.15,248a17.9,17.9,0,0,1,5.52-3.7A16,16,0,0,1,36.1,243ZM27.36,261A9.22,9.22,0,0,0,30.12,268a8.53,8.53,0,0,0,12.31.07,9.12,9.12,0,0,0,2.74-7,9.26,9.26,0,0,0-2.76-7,8.73,8.73,0,0,0-6.17-2.64,8.58,8.58,0,0,0-6.14,2.67A9.2,9.2,0,0,0,27.36,261Z"/><path class="cls-1" d="M107,250.48a12.75,12.75,0,0,1,1.25,5.67,12.56,12.56,0,0,1-1.25,5.64,10.93,10.93,0,0,1-3.22,4,13.33,13.33,0,0,1-8.25,3.08h-6v5.42A16.12,16.12,0,0,1,89.5,276a3.87,3.87,0,0,1-.46,1.27c-.45.86-1.7,1.29-3.74,1.29-2.24,0-3.56-.59-3.94-1.77a8.13,8.13,0,0,1-.29-2.5V247.6a15.89,15.89,0,0,1,.07-1.65,3.84,3.84,0,0,1,.46-1.28c.45-.86,1.7-1.29,3.74-1.29H95.62a13.27,13.27,0,0,1,8.2,3.07A11,11,0,0,1,107,250.48Zm-8.59,8.83a3.71,3.71,0,0,0,1.39-3.16,3.8,3.8,0,0,0-1.39-3.2,4.66,4.66,0,0,0-2.88-1.08h-6v8.5h6.05A4.62,4.62,0,0,0,98.45,259.31Z"/><path class="cls-1" d="M127.92,243a17.7,17.7,0,0,1,17.57,17.88,18.35,18.35,0,0,1-5,13,16.15,16.15,0,0,1-12.29,5.35,16.62,16.62,0,0,1-12.41-5.28,17.45,17.45,0,0,1-5.11-12.58,19.33,19.33,0,0,1,1.44-7.46A17.22,17.22,0,0,1,116,248a18,18,0,0,1,5.52-3.7A16,16,0,0,1,127.92,243ZM119.18,261a9.22,9.22,0,0,0,2.76,6.94,8.53,8.53,0,0,0,12.31.07,9.12,9.12,0,0,0,2.74-7,9.26,9.26,0,0,0-2.76-7,8.73,8.73,0,0,0-6.17-2.64,8.58,8.58,0,0,0-6.14,2.67A9.24,9.24,0,0,0,119.18,261Z"/><path class="cls-1" d="M148.61,247.6a13.48,13.48,0,0,1,.07-1.65,3.84,3.84,0,0,1,.46-1.28c.44-.86,1.69-1.29,3.74-1.29,2.24,0,3.57.59,4,1.77a9.61,9.61,0,0,1,.24,2.5v26.69A13.5,13.5,0,0,1,157,276a4.06,4.06,0,0,1-.45,1.25q-.68,1.29-3.75,1.29c-2.24,0-3.55-.6-3.93-1.82a7.32,7.32,0,0,1-.29-2.45Z"/><path class="cls-1" d="M183.67,244.84a2.3,2.3,0,0,1,1.37-1.13,7.79,7.79,0,0,1,2.28-.28,8.3,8.3,0,0,1,2.21.24,3.51,3.51,0,0,1,1.24.57,1.88,1.88,0,0,1,.6,1,7.32,7.32,0,0,1,.29,2.45v26.64a13.5,13.5,0,0,1-.07,1.68,3.87,3.87,0,0,1-.46,1.25c-.44.86-1.69,1.29-3.74,1.29a7.65,7.65,0,0,1-2.59-.29,2.75,2.75,0,0,1-1.2-.91q-10.8-14.4-14.21-18.81v15.79a13.5,13.5,0,0,1-.07,1.68,3.87,3.87,0,0,1-.46,1.25c-.45.86-1.69,1.29-3.74,1.29s-3.2-.43-3.65-1.29A3.85,3.85,0,0,1,161,276a16.72,16.72,0,0,1-.07-1.68V247.51a5.78,5.78,0,0,1,.46-2.67,2.3,2.3,0,0,1,1.37-1.13,8,8,0,0,1,2.35-.28,8.11,8.11,0,0,1,2.28.26,3,3,0,0,1,1.17.6,12.32,12.32,0,0,1,1.11,1.25q10.13,13.77,13.53,18.19V247.51A5.92,5.92,0,0,1,183.67,244.84Z"/><path class="cls-1" d="M197.81,243.33h26.68a5.31,5.31,0,0,1,2.26.36,1.83,1.83,0,0,1,1,1.13,6.89,6.89,0,0,1,.24,2,6.73,6.73,0,0,1-.24,2,1.64,1.64,0,0,1-.82,1,5.53,5.53,0,0,1-2.44.43h-9.17v24.14a15.52,15.52,0,0,1-.07,1.64,4,4,0,0,1-.44,1.22,2,2,0,0,1-1.27,1,7.93,7.93,0,0,1-2.4.29,7.63,7.63,0,0,1-2.37-.29,2,2,0,0,1-1.25-1,3.65,3.65,0,0,1-.43-1.25,13.16,13.16,0,0,1-.08-1.65v-24.1h-9.21a5.31,5.31,0,0,1-2.26-.36,1.83,1.83,0,0,1-1-1.13,6.89,6.89,0,0,1-.24-2,6.77,6.77,0,0,1,.24-2,1.64,1.64,0,0,1,.82-1A5.55,5.55,0,0,1,197.81,243.33Z"/><path class="cls-1" d="M65.3,264.73H69a3.5,3.5,0,0,0,0-7H65.3a3.5,3.5,0,0,0,0,7"/><path class="cls-1" d="M11.35,309.34l.43-.31a2.88,2.88,0,0,1,1.16-.48c.49,0,1,.45,1.6,1.34a2.72,2.72,0,0,1,.53,1.35,1.2,1.2,0,0,1-.32.84,4.19,4.19,0,0,1-.76.6l-.83.5a8.16,8.16,0,0,1-1.62.62,7.72,7.72,0,0,1-2.36.39,9.14,9.14,0,0,1-2.3-.3,9.71,9.71,0,0,1-2.4-1,9.61,9.61,0,0,1-2.22-1.73,7.84,7.84,0,0,1-1.62-2.61A9.19,9.19,0,0,1,0,305.07a9,9,0,0,1,.62-3.4,8,8,0,0,1,1.6-2.52,9.37,9.37,0,0,1,2.22-1.67,9.74,9.74,0,0,1,4.73-1.29,7.73,7.73,0,0,1,2.29.35,7.86,7.86,0,0,1,1.76.7l.58.34.67.43a1.46,1.46,0,0,1,.63,1.14,2.25,2.25,0,0,1-.51,1.33c-.62.87-1.18,1.3-1.68,1.3a2.55,2.55,0,0,1-1.22-.53A4.17,4.17,0,0,0,9,300.44a5.24,5.24,0,0,0-3.07,1.08A4,4,0,0,0,4.73,303a5.17,5.17,0,0,0,0,4.35A4.21,4.21,0,0,0,6,308.86,5.18,5.18,0,0,0,9,309.92a4.88,4.88,0,0,0,1.4-.2A3.34,3.34,0,0,0,11.35,309.34Z"/><path class="cls-1" d="M32.52,311a3.81,3.81,0,0,1,.36,1.25c0,.61-.5,1.12-1.49,1.54a3.32,3.32,0,0,1-1.23.33,1.18,1.18,0,0,1-.77-.23,1.76,1.76,0,0,1-.45-.46q-.24-.47-1.87-4.35l-.74.05h-3v2.71c0,.37,0,.65,0,.83a2.08,2.08,0,0,1-.23.64c-.22.43-.85.64-1.87.64s-1.78-.29-2-.88a4,4,0,0,1-.14-1.25V298.47c0-.37,0-.65,0-.83a2.08,2.08,0,0,1,.23-.64c.22-.43.85-.64,1.87-.64h5.19a6.68,6.68,0,0,1,4.1,1.53,5.59,5.59,0,0,1,1.58,2,6.29,6.29,0,0,1,.63,2.83,5.94,5.94,0,0,1-1.8,4.46C31.24,308.05,31.78,309.31,32.52,311Zm-9.22-6.12h3.08a2.27,2.27,0,0,0,1.39-.53,1.86,1.86,0,0,0,.69-1.58,1.92,1.92,0,0,0-.69-1.6,2.35,2.35,0,0,0-1.44-.54h-3Z"/><path class="cls-1" d="M40.85,309.7h7.39a5.81,5.81,0,0,1,.83,0,2,2,0,0,1,.63.22c.44.23.65.85.65,1.88s-.29,1.77-.89,2a3.8,3.8,0,0,1-1.24.15H38.71c-1.12,0-1.77-.31-2-.91a4,4,0,0,1-.14-1.23V298.47a2.3,2.3,0,0,1,.46-1.67,2.47,2.47,0,0,1,1.72-.44h9.46c.37,0,.64,0,.83,0a2,2,0,0,1,.63.23c.44.22.65.85.65,1.87s-.29,1.78-.89,2a3.85,3.85,0,0,1-1.24.14H40.85V303H45.6c.37,0,.64,0,.83,0a2,2,0,0,1,.63.23c.44.23.65.85.65,1.87s-.3,1.78-.91,2a3.87,3.87,0,0,1-1.25.15h-4.7Z"/><path class="cls-1" d="M64.46,297.6,70.94,311a3,3,0,0,1,.41,1.22c0,.58-.46,1.1-1.39,1.56a3.17,3.17,0,0,1-1.28.41,1.23,1.23,0,0,1-.77-.22,1.29,1.29,0,0,1-.43-.45c-.09-.16-.22-.4-.38-.72l-1.24-2.6H59.21L58,312.8c-.16.32-.28.55-.37.69a1.77,1.77,0,0,1-.43.45,1.25,1.25,0,0,1-.77.22,3.2,3.2,0,0,1-1.29-.4c-.92-.45-1.39-1-1.39-1.54a3.15,3.15,0,0,1,.41-1.22l6.48-13.42a2.17,2.17,0,0,1,1.94-1.22A2,2,0,0,1,64.46,297.6Zm-1.94,5.76-1.58,3.29h3.19Z"/><path class="cls-1" d="M71.74,296.33H85.08a2.67,2.67,0,0,1,1.13.18.91.91,0,0,1,.48.57,3.41,3.41,0,0,1,.12,1,3.36,3.36,0,0,1-.12,1,.85.85,0,0,1-.41.52,2.88,2.88,0,0,1-1.22.21H80.47v12.07a8.09,8.09,0,0,1,0,.82,2.07,2.07,0,0,1-.22.61,1,1,0,0,1-.64.49,3.9,3.9,0,0,1-1.2.15,3.76,3.76,0,0,1-1.18-.15,1,1,0,0,1-.63-.49,1.82,1.82,0,0,1-.21-.62,5.81,5.81,0,0,1,0-.83V299.81H71.71a2.67,2.67,0,0,1-1.13-.18.92.92,0,0,1-.48-.56,3.48,3.48,0,0,1-.12-1,3.36,3.36,0,0,1,.12-1,.83.83,0,0,1,.41-.51A2.73,2.73,0,0,1,71.74,296.33Z"/><path class="cls-1" d="M90.53,298.47c0-.37,0-.65,0-.83a2.08,2.08,0,0,1,.23-.64c.23-.43.85-.64,1.87-.64s1.79.29,2,.88a4.83,4.83,0,0,1,.12,1.25v13.35a7.75,7.75,0,0,1,0,.84,1.84,1.84,0,0,1-.23.62c-.22.43-.85.65-1.87.65s-1.78-.31-2-.91a4,4,0,0,1-.14-1.23Z"/><path class="cls-1" d="M115.15,296.62c.94.46,1.42,1,1.42,1.54a3.1,3.1,0,0,1-.36,1.15l-6.63,13.44a2,2,0,0,1-.8.85,2.1,2.1,0,0,1-1.12.32h-.24a2.14,2.14,0,0,1-1.14-.32,2,2,0,0,1-.8-.85l-6.63-13.44a3.24,3.24,0,0,1-.35-1.15c0-.56.47-1.08,1.41-1.54a3,3,0,0,1,1.21-.41,1.53,1.53,0,0,1,.64.1,1.11,1.11,0,0,1,.41.33,5.73,5.73,0,0,1,.39.64c.12.23.43.9.93,2s1,2.26,1.59,3.49,1.11,2.4,1.61,3.5.79,1.7.85,1.83l4.8-10.51c.13-.3.24-.54.34-.72a1.26,1.26,0,0,1,1-.65A3.2,3.2,0,0,1,115.15,296.62Z"/><path class="cls-1" d="M124.54,309.7h7.39a5.65,5.65,0,0,1,.82,0,2,2,0,0,1,.64.22c.43.23.65.85.65,1.88s-.3,1.77-.89,2a3.87,3.87,0,0,1-1.25.15h-9.5c-1.12,0-1.78-.31-2-.91a3.74,3.74,0,0,1-.14-1.23V298.47a2.35,2.35,0,0,1,.45-1.67,2.5,2.5,0,0,1,1.73-.44h9.46c.36,0,.64,0,.82,0a2,2,0,0,1,.64.23c.43.22.65.85.65,1.87s-.3,1.78-.89,2a3.92,3.92,0,0,1-1.25.14h-7.36V303h4.75c.37,0,.64,0,.83,0a2,2,0,0,1,.63.23c.43.23.65.85.65,1.87s-.31,1.78-.91,2a3.91,3.91,0,0,1-1.25.15h-4.7Z"/><path class="cls-1" d="M146.73,311.48a2.37,2.37,0,0,1-.62-1.38c0-.41.35-1,1-1.62a1.82,1.82,0,0,1,1.28-.58c.44,0,1.07.4,1.87,1.2a3.6,3.6,0,0,0,1,.78,2.24,2.24,0,0,0,1.15.37c1.49,0,2.23-.61,2.23-1.82a1.08,1.08,0,0,0-.61-.93,4.92,4.92,0,0,0-1.52-.54,14.16,14.16,0,0,1-3.94-1.41A3.93,3.93,0,0,1,147,304a5.27,5.27,0,0,1-.62-2.63,5.05,5.05,0,0,1,1.58-3.68,5.75,5.75,0,0,1,4.28-1.57,8.75,8.75,0,0,1,2.63.37,4.94,4.94,0,0,1,1.64.76l.6.45a1.87,1.87,0,0,1,.74,1.18,2.67,2.67,0,0,1-.57,1.32q-.82,1.2-1.68,1.2a2.47,2.47,0,0,1-1.25-.48,2.42,2.42,0,0,1-.28-.24,3,3,0,0,0-.37-.31,2.36,2.36,0,0,0-1.28-.32,2.17,2.17,0,0,0-1.3.38,1.19,1.19,0,0,0-.51,1,1.24,1.24,0,0,0,.61,1.07,3.85,3.85,0,0,0,1.52.55,16.53,16.53,0,0,1,2,.44,13,13,0,0,1,2,.73,3.53,3.53,0,0,1,1.52,1.5,5.22,5.22,0,0,1,.61,2.63,5.9,5.9,0,0,1-.62,2.75,4.88,4.88,0,0,1-1.63,1.84,7.52,7.52,0,0,1-4.15,1.27,7.79,7.79,0,0,1-2.14-.28,5.67,5.67,0,0,1-1.63-.68,5.86,5.86,0,0,1-1.78-1.49Z"/><path class="cls-1" d="M162.81,296.33h13.35a2.67,2.67,0,0,1,1.13.18.91.91,0,0,1,.48.57,3.41,3.41,0,0,1,.12,1,3.36,3.36,0,0,1-.12,1,.85.85,0,0,1-.41.52,2.9,2.9,0,0,1-1.23.21h-4.58v12.07a5.57,5.57,0,0,1,0,.82,1.77,1.77,0,0,1-.21.61,1,1,0,0,1-.64.49,4.84,4.84,0,0,1-2.39,0,1,1,0,0,1-.62-.49,2.12,2.12,0,0,1-.22-.62c0-.19,0-.46,0-.83V299.81h-4.61a2.67,2.67,0,0,1-1.13-.18.92.92,0,0,1-.48-.56,3.48,3.48,0,0,1-.12-1,3.36,3.36,0,0,1,.12-1,.83.83,0,0,1,.41-.51A2.72,2.72,0,0,1,162.81,296.33Z"/><path class="cls-1" d="M193.1,297a1.2,1.2,0,0,1,.7-.52,3.66,3.66,0,0,1,1.14-.15,4,4,0,0,1,1.09.12,1.89,1.89,0,0,1,.62.29,1,1,0,0,1,.32.5,4.28,4.28,0,0,1,.14,1.25v7.25a9.32,9.32,0,0,1-2,5.76,7,7,0,0,1-2.47,2,7.43,7.43,0,0,1-3.35.76,7.23,7.23,0,0,1-3.33-.77,6.93,6.93,0,0,1-2.44-2,9.19,9.19,0,0,1-1.94-5.76v-7.22c0-.39,0-.67,0-.85a2,2,0,0,1,.23-.64,1,1,0,0,1,.65-.5,4,4,0,0,1,1.22-.15,4.12,4.12,0,0,1,1.23.15.94.94,0,0,1,.62.5,3.32,3.32,0,0,1,.29,1.51v7.2a5.74,5.74,0,0,0,.72,2.79,2.8,2.8,0,0,0,1.08,1.08,3.42,3.42,0,0,0,1.7.4,2.94,2.94,0,0,0,2.62-1.29,5.35,5.35,0,0,0,.86-3v-7.35A2.66,2.66,0,0,1,193.1,297Z"/><path class="cls-1" d="M203.57,296.33l4.44,0a8.62,8.62,0,0,1,6.12,2.5,8.19,8.19,0,0,1,2.64,6.17,8.64,8.64,0,0,1-2.58,6.28,8.48,8.48,0,0,1-6.26,2.61h-4.39c-1,0-1.58-.2-1.82-.6a3.16,3.16,0,0,1-.29-1.53V298.44a5.79,5.79,0,0,1,0-.84,2,2,0,0,1,.22-.62C201.92,296.55,202.54,296.33,203.57,296.33Zm7.56,12.06a4.22,4.22,0,0,0,1.39-3.23,4.32,4.32,0,0,0-1.36-3.25A4.43,4.43,0,0,0,208,300.6h-2.3v9.08H208A4.49,4.49,0,0,0,211.13,308.39Z"/><path class="cls-1" d="M220.73,298.47c0-.37,0-.65,0-.83A2.08,2.08,0,0,1,221,297c.22-.43.85-.64,1.87-.64s1.79.29,2,.88a4.83,4.83,0,0,1,.12,1.25v13.35q0,.57,0,.84a2.09,2.09,0,0,1-.23.62c-.22.43-.85.65-1.87.65s-1.78-.31-2-.91a3.74,3.74,0,0,1-.14-1.23Z"/><path class="cls-1" d="M237.55,296.14a8.84,8.84,0,0,1,8.78,8.94,9.16,9.16,0,0,1-2.49,6.48,8.1,8.1,0,0,1-6.15,2.68,8.3,8.3,0,0,1-6.2-2.64,8.76,8.76,0,0,1-2.56-6.29,9.65,9.65,0,0,1,.72-3.73,8.63,8.63,0,0,1,1.92-2.92,9.1,9.1,0,0,1,2.76-1.85A8,8,0,0,1,237.55,296.14Zm-4.37,9.05a4.62,4.62,0,0,0,1.38,3.47,4.26,4.26,0,0,0,6.16,0,4.56,4.56,0,0,0,1.37-3.48,4.62,4.62,0,0,0-1.38-3.5,4.37,4.37,0,0,0-3.09-1.32,4.29,4.29,0,0,0-3.07,1.33A4.63,4.63,0,0,0,233.18,305.19Z"/></g></g></svg>