<?xml version="1.0" encoding="utf-8"?>
<!-- Generator: Adobe Illustrator 23.0.5, SVG Export Plug-In . SVG Version: 6.00 Build 0)  -->
<svg version="1.1" id="Layer_1" xmlns="http://www.w3.org/2000/svg" xmlns:xlink="http://www.w3.org/1999/xlink" x="0px" y="0px"
	 viewBox="0 0 314.2 102" style="enable-background:new 0 0 314.2 102;" xml:space="preserve">
<style type="text/css">
	.st0{fill:#FFFFFF;}
</style>
<title>Asset 2</title>
<g>
	<g>
		<g>
			<path class="st0" d="M49.5,1.4c0.4-1.5,1.7-1.9,2.9-0.8l2.6,2.6c1.1,1.1,3.4,2,5,1.9L63.6,5c1.6-0.1,2.3,1,1.6,2.5l-1.6,3.3
				c-0.7,1.4-0.8,3.8-0.3,5.3l1.3,3.4c0.6,1.5-0.3,2.5-1.9,2.3l-3.6-0.5c-1.6-0.2-3.9,0.4-5.1,1.4L51,24.9c-1.2,1-2.5,0.5-2.8-1.1
				l-0.6-3.6c-0.3-1.6-1.6-3.6-2.9-4.5l-3.1-2c-1.3-0.9-1.3-2.2,0.2-3l3.3-1.7c1.4-0.7,2.9-2.6,3.3-4.1L49.5,1.4z"/>
		</g>
		<path class="st0" d="M97.1,74c-0.7-0.9-1.1-2.4-1.1-4.6V46.1c0-5.4-1.1-9.4-3.2-12.1c-2.2-2.6-5.5-4-9.9-4c-2.8,0-5.4,0.7-7.9,1.9
			c-1.9,1-3.6,2.4-5.2,4.2v4.7c0.8-1,1.6-1.8,2.5-2.3c1.4-0.9,2.9-1.4,4.4-1.4c1.8,0,3.1,0.6,3.8,1.7c0.7,1.1,1.1,3.3,1.1,6.4v24.2
			c0,2.1-0.4,3.6-1.1,4.5c-0.7,0.9-2,1.4-3.8,1.4l-0.1,2.4h24.2v-2.4C99.1,75.4,97.8,74.9,97.1,74z"/>
		<path class="st0" d="M65.1,74.1c-0.7-0.8-1-2.3-1-4.6V31.3H48.1c0.5,0.5,0.9,1,1.3,1.5c2.2,2.7,3.8,5.8,4.8,9.2
			c1,3.4,1.5,7,1.5,10.9c0,4.4-0.6,8.6-1.9,12.4c-1.3,3.8-3.2,7.4-5.9,10.4c-0.6,0.7-1.3,1.4-2,2.1h22.7v-2.4
			C67,75.3,65.7,74.9,65.1,74.1z"/>
		<path class="st0" d="M5.2,79.6V19.6c0-3.2-0.4-5.3-1.1-6.1C3.4,12.7,2,12.2-0.1,12V9.5h19.5v26.3c1.7-1.9,3.5-3.3,5.6-4.3
			c2.1-1,4.3-1.5,6.8-1.5c5.3,0,9.6,2.1,13,6.4c3.4,4.2,5.1,9.7,5.1,16.5c0,7.7-2.1,14.1-6.3,19c-4.2,4.9-9.6,7.4-16.1,7.4
			c-2.3,0-4.5-0.5-6.7-1.4c-2.1-0.9-4.3-2.4-6.5-4.3l-7.7,6H5.2z M19.5,67.6c0,2.7,0.6,4.7,1.7,6.1c1.1,1.4,2.8,2.1,4.9,2.1
			c3.3,0,5.7-1.7,7.2-5c1.5-3.3,2.2-8.9,2.2-16.8c0-6.3-0.7-10.8-2.2-13.7c-1.5-2.9-3.8-4.3-7-4.3c-1.6,0-3,0.5-4.3,1.6
			s-2.1,2.5-2.5,4.2V67.6z"/>
		<path class="st0" d="M257,74c-0.7-0.9-1.1-2.4-1.1-4.6V46.1c0-5.4-1.1-9.4-3.2-12c-2.1-2.7-5.4-4-9.7-4c-2.9,0-5.6,0.7-8.1,2.2
			c-2.5,1.4-4.6,3.6-6.5,6.4c-0.7-2.7-2.2-4.8-4.3-6.3c-2.2-1.5-4.9-2.2-8.2-2.2c-2.5,0-5,0.7-7.3,2.1c-2.4,1.4-4.5,3.4-6.3,5.9
			v-6.8h-17.3c0.6,0.5,1.1,1.1,1.6,1.6c2.6,2.8,4.6,6.2,5.9,9.8c1.3,3.7,1.9,7.6,1.9,11.8c0,4.2-0.6,8.2-1.9,11.8
			c-1.3,3.7-3.3,7-5.9,9.8c-0.5,0.6-1,1.1-1.6,1.6H207l0-2.4c-1.7-0.1-2.9-0.6-3.6-1.4c-0.7-0.8-1-2.3-1-4.5V42.6
			c1.1-1.8,2.3-3.2,3.6-4.1s2.8-1.4,4.4-1.4c1.8,0,3,0.6,3.8,1.7c0.7,1.2,1.1,3.3,1.1,6.4v24.2c0,2.1-0.4,3.6-1.1,4.5
			c-0.7,0.9-2,1.4-3.7,1.4l-0.1,2.4h23.5v-2.4c-1.7-0.1-3-0.5-3.7-1.4c-0.7-0.9-1.1-2.4-1.1-4.6V42.3c1.2-1.7,2.4-3,3.7-3.9
			c1.3-0.8,2.7-1.3,4.2-1.3c1.8,0,3.1,0.6,3.8,1.7c0.7,1.1,1.1,3.3,1.1,6.4v24.2c0,2.1-0.4,3.6-1.1,4.5c-0.7,0.9-2,1.4-3.7,1.4v2.4
			h23.7v-2.4C258.9,75.4,257.7,74.9,257,74z"/>
		<path class="st0" d="M310.6,74c-0.7-0.9-1.1-2.4-1.1-4.6V46.1c0-5.4-1.1-9.4-3.2-12c-2.1-2.7-5.4-4-9.7-4c-2.9,0-5.6,0.7-8.1,2.2
			c-2.5,1.4-4.6,3.6-6.5,6.4c-0.7-2.7-2.2-4.8-4.3-6.3c-2.2-1.5-4.9-2.2-8.2-2.2c-2.5,0-5,0.7-7.3,2.1c-1,0.6-1.9,1.3-2.7,2
			c0.5,1.1,0.9,2.2,1.2,3.3c0,0.1,0,0.2,0.1,0.3c1-0.4,2-0.7,3.2-0.7c1.8,0,3,0.6,3.8,1.7c0.7,1.2,1.1,3.3,1.1,6.4v24.2
			c0,2.1-0.4,3.6-1.1,4.5c-0.7,0.9-2,1.4-3.7,1.4l-0.1,2.4h23.5v-2.4c-1.7-0.1-3-0.5-3.7-1.4c-0.7-0.9-1.1-2.4-1.1-4.6V42.3
			c1.2-1.7,2.4-3,3.7-3.9c1.3-0.8,2.7-1.3,4.2-1.3c1.8,0,3.1,0.6,3.8,1.7c0.7,1.1,1.1,3.3,1.1,6.4v24.2c0,2.1-0.4,3.6-1.1,4.5
			c-0.7,0.9-2,1.4-3.7,1.4v2.4h23.7v-2.4C312.5,75.4,311.3,74.9,310.6,74z"/>
		<path class="st0" d="M143.8,54.6c0-7.3,2.1-13.2,6.2-17.7c4.1-4.5,9.5-6.8,16.2-6.8c6.6,0,12,2.3,16.2,6.8
			c4.1,4.5,6.2,10.4,6.2,17.7c0,7.3-2.1,13.2-6.2,17.7c-4.1,4.6-9.5,6.8-16.1,6.8c-6.6,0-11.9-2.3-16.1-6.9
			C145.9,67.7,143.8,61.8,143.8,54.6z M158.5,54.5c0,8.4,0.6,14.1,1.7,17c1.1,2.9,3.2,4.4,6,4.4c2.9,0,4.9-1.4,6-4.3
			c1.1-2.9,1.7-8.5,1.7-17c0-8.5-0.6-14.2-1.7-17.2c-1.1-2.9-3.1-4.4-6-4.4c-2.9,0-4.9,1.5-6,4.4C159,40.4,158.5,46.1,158.5,54.5z"
			/>
		<path class="st0" d="M141.4,68.8c-2.5,3.5-5.3,6.1-8.6,7.9c-3.3,1.8-6.8,2.7-10.7,2.7c-5.8,0-10.6-2.3-14.6-6.9
			c-3.9-4.6-5.9-10.3-5.9-17.1c0-7.3,2.2-13.4,6.6-18.2c4.4-4.8,10-7.2,16.6-7.2c4.6,0,8.3,1,11.2,3.1c2.8,2,4.3,4.7,4.3,8
			c0,1.8-0.6,3.3-1.7,4.4c-1.1,1.1-2.6,1.7-4.4,1.7c-2,0-3.5-0.6-4.6-1.7c-1-1.1-1.5-2.9-1.5-5.2c0-0.4,0-0.9,0.1-1.6
			c0.1-0.7,0.1-1.2,0.1-1.5c0-1.2-0.4-2.2-1.1-2.8c-0.7-0.7-1.8-1-3.1-1c-2.8,0-4.9,1.4-6.3,4.2c-1.5,2.8-2.2,6.9-2.2,12.2
			c0,7,1.2,12.5,3.6,16.4c2.4,3.9,5.8,5.9,10.2,5.9c1.9,0,3.6-0.4,5.2-1.2c1.6-0.8,3.2-2.1,4.9-3.8L141.4,68.8z"/>
	</g>
	<g>
		<path class="st0" d="M13,94.2c-0.7-0.9-1.5-1.2-2.5-1.2C8.2,93,7,94.7,7,96.7s1.4,3.8,3.4,3.8c1.1,0,1.9-0.4,2.6-1.3l1.3,1.2
			c-1,1.1-2.4,1.6-3.8,1.6c-3.1,0-5.2-2.2-5.2-5.3c0-3.1,2.1-5.3,5.2-5.3c1.5,0,2.9,0.5,3.9,1.6L13,94.2z"/>
		<path class="st0" d="M26.5,94.1c0-0.9-0.1-1.7-0.1-2.4H28c0,0.5,0,1.1,0,1.7h0c0.5-1,1.7-1.9,3.4-1.9c0.2,0,0.5,0,0.7,0.1
			l-0.1,1.7c-0.3-0.1-0.6-0.1-0.9-0.1c-2.1,0-3,1.4-3,3.8v4.9h-1.7V94.1z"/>
		<path class="st0" d="M53.1,99.9c-1.2,1.5-2.6,2.1-4.5,2.1c-3.2,0-5.1-2.4-5.1-5.3c0-3.1,2.2-5.3,5.2-5.3c2.9,0,4.8,1.9,4.8,5.3
			v0.5h-8.2c0.1,1.8,1.5,3.2,3.3,3.2c1.4,0,2.4-0.5,3.2-1.5L53.1,99.9z M51.6,95.8c-0.1-1.7-1.2-2.9-3-2.9c-1.9,0-3.1,1.1-3.3,2.9
			H51.6z"/>
		<path class="st0" d="M66.3,93c1-1.1,2.5-1.6,4-1.6c3,0,4.2,1.4,4.2,4.3v4.3c0,0.6,0.1,1.2,0.2,1.7H73c-0.1-0.5-0.1-1.1-0.1-1.5h0
			c-0.7,1-1.8,1.8-3.3,1.8c-2.1,0-3.8-1-3.8-3c0-3.3,3.9-3.5,6.4-3.5h0.6v-0.3c0-1.5-0.9-2.2-2.5-2.2c-1.1,0-2.2,0.4-3,1.1L66.3,93z
			 M71.1,96.9c-2.1,0-3.5,0.6-3.5,1.9c0,1.3,0.9,1.7,2.2,1.7c1.9,0,2.9-1.4,3-3v-0.6H71.1z"/>
		<path class="st0" d="M93.4,93.1h-3v5.1c0,1.3,0,2.3,1.5,2.3c0.5,0,1-0.1,1.5-0.3l0.1,1.5c-0.6,0.3-1.3,0.4-2,0.4
			c-2.4,0-2.8-1.3-2.8-3.4v-5.6h-2.2v-1.4h2.2v-2.9h1.7v2.9h3V93.1z"/>
		<path class="st0" d="M106.8,86.5c0.7,0,1.2,0.6,1.2,1.2c0,0.7-0.5,1.2-1.2,1.2c-0.7,0-1.2-0.5-1.2-1.2
			C105.6,87.1,106.1,86.5,106.8,86.5z M106,91.7h1.7v10.1H106V91.7z"/>
		<path class="st0" d="M126,101.8h-1.9L120,91.7h2l3.2,7.9h0l3-7.9h1.8L126,101.8z"/>
		<path class="st0" d="M151.1,99.9c-1.2,1.5-2.6,2.1-4.5,2.1c-3.2,0-5.1-2.4-5.1-5.3c0-3.1,2.2-5.3,5.2-5.3c2.9,0,4.8,1.9,4.8,5.3
			v0.5h-8.2c0.1,1.8,1.5,3.2,3.3,3.2c1.4,0,2.4-0.5,3.2-1.5L151.1,99.9z M149.7,95.8c-0.1-1.7-1.2-2.9-3-2.9c-1.9,0-3.1,1.1-3.3,2.9
			H149.7z"/>
		<path class="st0" d="M181,99.1c0.7,0.8,1.4,1.4,2.6,1.4c1.1,0,2.2-0.5,2.2-1.6c0-1.1-1.1-1.4-2.2-1.6c-1.9-0.4-3.6-0.8-3.6-2.9
			c0-2,1.9-3,3.8-3c1.4,0,2.7,0.5,3.4,1.8l-1.4,0.9c-0.4-0.7-1.1-1.2-2.1-1.2c-0.9,0-2,0.5-2,1.4c0,0.8,1.2,1.2,2.5,1.5
			c1.8,0.3,3.3,1,3.3,3c0,2.3-2,3.2-4,3.2c-1.7,0-2.9-0.5-3.9-1.9L181,99.1z"/>
		<path class="st0" d="M205.8,93.1h-3v5.1c0,1.3,0,2.3,1.5,2.3c0.5,0,1-0.1,1.5-0.3l0.1,1.5c-0.6,0.3-1.3,0.4-2,0.4
			c-2.4,0-2.8-1.3-2.8-3.4v-5.6h-2.2v-1.4h2.2v-2.9h1.7v2.9h3V93.1z"/>
		<path class="st0" d="M227,99.4c0,0.9,0.1,1.7,0.1,2.4h-1.6c0-0.5,0-1.1,0-1.7h0c-0.5,1-1.7,1.9-3.4,1.9c-2.7,0-3.8-1.7-3.8-4.1
			v-6.2h1.7v6.1c0,1.7,0.7,2.7,2.3,2.7c2.2,0,3.1-1.6,3.1-3.9v-4.9h1.7V99.4z"/>
		<path class="st0" d="M248.9,100L248.9,100c-0.7,1.1-2.1,2.1-3.9,2.1c-2.8,0-5.1-2.3-5.1-5.3c0-3.1,2.1-5.3,5.3-5.3
			c1.5,0,2.7,0.6,3.6,1.7h0v-7.7h1.7v16.3h-1.7V100z M245.4,93c-2.2,0-3.6,1.6-3.6,3.8c0,2.1,1.4,3.8,3.6,3.8c2.2,0,3.6-1.6,3.6-3.8
			C248.9,94.6,247.5,93,245.4,93z"/>
		<path class="st0" d="M265.1,86.5c0.7,0,1.2,0.6,1.2,1.2c0,0.7-0.5,1.2-1.2,1.2c-0.7,0-1.2-0.5-1.2-1.2
			C263.8,87.1,264.4,86.5,265.1,86.5z M264.2,91.7h1.7v10.1h-1.7V91.7z"/>
		<path class="st0" d="M284.4,91.4c3.1,0,5.4,2.2,5.4,5.3s-2.3,5.3-5.4,5.3c-3.1,0-5.4-2.2-5.4-5.3S281.3,91.4,284.4,91.4z
			 M284.4,100.5c2.2,0,3.6-1.6,3.6-3.8c0-2.1-1.4-3.8-3.6-3.8s-3.6,1.6-3.6,3.8C280.8,98.8,282.2,100.5,284.4,100.5z"/>
		<path class="st0" d="M302.9,99.1c0.7,0.8,1.4,1.4,2.6,1.4c1.1,0,2.2-0.5,2.2-1.6c0-1.1-1.1-1.4-2.2-1.6c-1.9-0.4-3.6-0.8-3.6-2.9
			c0-2,1.9-3,3.8-3c1.4,0,2.7,0.5,3.4,1.8l-1.4,0.9c-0.4-0.7-1.1-1.2-2.1-1.2c-0.9,0-2,0.5-2,1.4c0,0.8,1.2,1.2,2.5,1.5
			c1.8,0.3,3.3,1,3.3,3c0,2.3-2,3.2-4,3.2c-1.7,0-2.9-0.5-3.9-1.9L302.9,99.1z"/>
	</g>
</g>
</svg>
